<svg version="1.1" id="Layer_1" xmlns="http://www.w3.org/2000/svg" xmlns:xlink="http://www.w3.org/1999/xlink" x="0px"
     y="0px" viewBox="0 0 512 512" style="enable-background:new 0 0 512 512;" xml:space="preserve"><g><g><path d="M437.762,305.607h-34.028c0-3.653,0-151.238,0-152.594c0-12.102-9.845-21.945-21.944-21.945h-8.68v-21.333 c0-10.362-8.43-18.791-18.79-18.791h-70.582c12.498-19.001,2.475-44.676-19.48-50.318c1.251-7.153,4.564-18.793,13.328-27.934 c2.867-2.989,2.768-7.737-0.223-10.605c-2.988-2.867-7.736-2.767-10.604,0.223c-12.404,12.937-16.378,29.075-17.652,38 c-22.758,4.83-33.654,31.151-20.84,50.633h-70.582c-10.361,0-18.79,8.43-18.79,18.791v21.333h-8.681 c-12.101,0-21.944,9.845-21.944,21.945c0,17.157,0,136.113,0,152.594h-34.03c-12.101,0-21.944,9.845-21.944,21.945v41.625 c0,14.695,0,105.745,0,120.878c0,12.102,9.845,21.945,21.944,21.945h363.525c12.101,0,21.944-9.845,21.944-21.945 c0-6.808,0-155.831,0-162.502C459.707,315.451,449.863,305.607,437.762,305.607z M256,54.585c10.025,0,18.179,8.155,18.179,18.179 c0,10.025-8.154,18.179-18.179,18.179c-10.025,0-18.179-8.154-18.179-18.179C237.821,62.74,245.975,54.585,256,54.585z M123.267,153.013c0-3.829,3.115-6.944,6.943-6.944c8.177,0,176.024,0,184.056,0c4.143,0,7.5-3.357,7.5-7.5s-3.357-7.5-7.5-7.5 c-5.862,0-147.055,0-160.375,0v-21.333c0-2.09,1.7-3.79,3.789-3.79h196.637c2.089,0,3.789,1.7,3.789,3.79v21.333 c-6.132,0-10.029,0-16.147,0c-4.143,0-7.5,3.357-7.5,7.5s3.357,7.5,7.5,7.5c8.953,0,15.314,0,23.647,0h16.181 c3.828,0,6.943,3.115,6.943,6.944v30.568c-13.99-4.018-12.938-12.911-20.397-12.911c-2.349,0-4.562,1.101-5.98,2.973 c-11.134,14.707-33.15,14.712-44.288,0c-3-3.964-8.964-3.956-11.96,0c-11.135,14.706-33.152,14.714-44.291,0 c-3.003-3.964-8.964-3.956-11.96,0c-11.135,14.707-33.149,14.714-44.289,0c-3.002-3.964-8.965-3.956-11.96,0 c-11.134,14.706-33.151,14.714-44.291,0c-3.001-3.963-8.963-3.957-11.96,0c-3.612,4.771-8.536,8.164-14.091,9.836V153.013z M143.334,189.133c15.992,14.045,40.229,14.075,56.255,0.003c15.994,14.043,40.225,14.069,56.248,0 c15.992,14.041,40.226,14.071,56.251,0c15.991,14.043,40.227,14.071,56.25-0.002c5.787,5.076,12.804,8.461,20.396,9.835v26.934 c-5.657-1.445-10.765-4.667-14.578-9.312c-2.998-3.652-8.595-3.651-11.594,0.001c-11.039,13.446-33.394,13.718-44.658-0.006 c-2.997-3.653-8.596-3.652-11.595,0c-11.718,14.276-34.022,12.954-44.655,0c-2.999-3.653-8.596-3.652-11.595,0 c-11.075,13.493-33.457,13.64-44.655,0c-2.999-3.653-8.596-3.652-11.595,0c-11.071,13.487-33.46,13.644-44.658,0.006 c-2.675-3.259-6.796-2.741-5.796-2.741c-7.108,0-6.512,8.351-20.087,11.977v-26.927h-0.001 C130.734,197.489,137.633,194.128,143.334,189.133z M123.267,274.867h193.721c4.143,0,7.5-3.357,7.5-7.5s-3.357-7.5-7.5-7.5 H123.267v-18.704c7.397-1.251,14.312-4.424,20.087-9.219c15.285,12.69,39.977,13.511,56.253-0.004 c15.24,12.655,39.693,13.749,56.25,0c15.75,13.08,40.45,13.12,56.25,0c15.283,12.691,39.975,13.517,56.253,0.004 c5.85,4.857,12.869,8.046,20.374,9.263v18.66H343.99c-4.143,0-7.5,3.357-7.5,7.5s3.357,7.5,7.5,7.5h44.743v30.74H123.267V274.867z M74.237,320.609c9.796,0,353.81,0,363.525,0c3.829,0,6.943,3.115,6.943,6.944v33.198c-13.91-3.692-13.191-12.427-20.463-12.427 c-2.288,0-4.45,1.044-5.873,2.836c-11.094,13.97-33.019,13.98-44.215,0.346c-1.425-1.734-3.552-2.74-5.797-2.74 c-2.244,0-4.371,1.006-5.796,2.741c-11.014,13.416-33.405,13.702-44.658-0.004c-2.999-3.653-8.596-3.652-11.595,0 c-10.921,13.301-33.305,13.825-44.655,0c-2.999-3.653-8.596-3.652-11.595,0c-10.971,13.364-33.356,13.763-44.656-0.001 c-3-3.652-8.597-3.651-11.594,0.001c-11.038,13.444-33.429,13.682-44.658,0.004c-2.995-3.649-8.589-3.659-11.594-0.001 c-11.306,13.769-33.224,13.492-44.213-0.346c-1.423-1.791-3.585-2.836-5.873-2.836c1,0-3.204-0.525-5.873,2.835 c-3.72,4.683-8.721,7.966-14.304,9.515v-33.121h0C67.294,323.724,70.409,320.609,74.237,320.609z M67.293,376.035L67.293,376.035 c7.463-1.306,14.405-4.564,20.177-9.47c7.69,6.533,17.448,10.17,27.772,10.113c0.209-0.001,0.333,0.001,0.503-0.006 c0.123,0.004,0.247,0.007,0.37,0.007c10.059,0,19.634-3.509,27.238-9.822c15.649,12.992,40.135,13.38,56.254-0.003 c15.797,13.118,40.479,13.095,56.25,0c15.248,12.663,39.94,13.542,56.25,0c15.341,12.74,39.787,13.672,56.253,0.003 c15.885,13.188,40.115,13.107,55.885-0.292c5.846,4.968,12.892,8.242,20.463,9.514v24.297 c-13.91-3.692-13.191-12.427-20.463-12.427c-2.288,0-4.45,1.044-5.873,2.835c-11.096,13.97-33.018,13.982-44.215,0.347 c-2.999-3.651-8.595-3.652-11.594,0.001c-11.059,13.472-33.451,13.647-44.658-0.005c-2.999-3.653-8.596-3.652-11.595,0 c-10.948,13.337-33.333,13.793-44.655,0c-2.999-3.653-8.596-3.652-11.595,0c-10.921,13.304-33.302,13.825-44.656,0 c-2.999-3.652-8.596-3.653-11.594,0c-11.037,13.443-33.427,13.685-44.658,0.005c-3.02-3.679-8.613-3.63-11.594-0.001 c-11.256,13.708-33.178,13.549-44.213-0.346c-1.422-1.792-3.584-2.836-5.873-2.836c0,0,0,0-0.001,0 c-7.202,0-6.497,8.558-20.177,12.349V376.035z M444.707,451.258H141.978c-4.142,0-7.5,3.357-7.5,7.5s3.358,7.5,7.5,7.5h302.729 v23.796h-0.001c0,3.829-3.115,6.944-6.943,6.944H74.237c-3.829,0-6.943-3.115-6.943-6.944v-23.796h47.682 c4.142,0,7.5-3.357,7.5-7.5s-3.358-7.5-7.5-7.5H67.294v-35.599c7.462-1.305,14.403-4.563,20.176-9.469 c15.77,13.397,39.995,13.483,55.883,0.292c15.25,12.661,39.945,13.538,56.254-0.004c15.249,12.664,39.939,13.544,56.25,0 c15.801,13.121,40.48,13.095,56.25,0c15.248,12.662,39.942,13.545,56.253,0.004c15.529,12.892,39.617,13.525,55.884-0.292 c5.846,4.967,12.892,8.242,20.463,9.514V451.258z"/></g></g></svg>
