<svg width="259" height="196" viewBox="0 0 259 196" fill="none" xmlns="http://www.w3.org/2000/svg">
    <path d="M105.062 115.974C105.062 118.987 105.324 120.69 108.075 122H95.63C98.381 120.69 98.643 118.987 98.643 115.974V32.527L54.758 123.31L12.183 35.016V114.402C12.183 118.856 12.969 121.345 16.768 122H6.55C10.218 121.345 11.135 118.856 11.135 114.402V37.898C11.135 33.575 10.218 30.955 6.55 30.3H16.899L57.771 114.795L98.643 30.3H108.075C105.324 31.61 105.062 33.313 105.062 36.326V115.974Z"
          fill="white"/>
    <path d="M108.075 122V123L108.505 121.097L108.075 122ZM95.63 122L95.2001 121.097L95.63 123V122ZM98.643 32.527H99.643L97.7427 32.0918L98.643 32.527ZM54.758 123.31L53.8573 123.744L54.7569 125.61L55.6583 123.745L54.758 123.31ZM12.183 35.016L13.0838 34.5817L11.183 35.016H12.183ZM16.768 122V123L16.9379 121.015L16.768 122ZM6.55 122L6.37421 121.016L6.55 123V122ZM6.55 30.3V29.3L6.37421 31.2844L6.55 30.3ZM16.899 30.3L17.7992 29.8645L17.5261 29.3H16.899V30.3ZM57.771 114.795L56.8708 115.23L57.771 117.091L58.6712 115.23L57.771 114.795ZM98.643 30.3V29.3H98.0159L97.7428 29.8645L98.643 30.3ZM108.075 30.3L108.505 31.2029L108.075 29.3V30.3ZM104.062 115.974C104.062 117.467 104.118 118.839 104.616 120.016C105.146 121.265 106.113 122.174 107.645 122.903L108.505 121.097C107.286 120.516 106.747 119.918 106.458 119.235C106.137 118.48 106.062 117.494 106.062 115.974H104.062ZM108.075 121H95.63V123H108.075V121ZM96.0599 122.903C97.5915 122.174 98.5594 121.265 99.0889 120.016C99.5874 118.839 99.643 117.467 99.643 115.974H97.643C97.643 117.494 97.5676 118.48 97.2474 119.235C96.9581 119.918 96.4195 120.516 95.2001 121.097L96.0599 122.903ZM99.643 115.974V32.527H97.643V115.974H99.643ZM97.7427 32.0918L53.8577 122.875L55.6583 123.745L99.5433 32.9622L97.7427 32.0918ZM55.6588 122.876L13.0838 34.5817L11.2823 35.4503L53.8573 123.744L55.6588 122.876ZM11.183 35.016V114.402H13.183V35.016H11.183ZM11.183 114.402C11.183 116.642 11.371 118.599 12.1682 120.096C13.0178 121.691 14.4708 122.619 16.5981 122.985L16.9379 121.015C15.2662 120.726 14.4267 120.082 13.9335 119.156C13.388 118.131 13.183 116.616 13.183 114.402H11.183ZM16.768 121H6.55V123H16.768V121ZM6.72579 122.984C8.79273 122.615 10.2337 121.685 11.0959 120.104C11.911 118.61 12.135 116.657 12.135 114.402H10.135C10.135 116.601 9.9005 118.119 9.3401 119.147C8.82679 120.088 7.97527 120.73 6.37421 121.016L6.72579 122.984ZM12.135 114.402V37.898H10.135V114.402H12.135ZM12.135 37.898C12.135 35.703 11.9096 33.7559 11.0985 32.2494C10.2429 30.6605 8.80883 29.6875 6.72579 29.3156L6.37421 31.2844C7.95917 31.5675 8.81756 32.2319 9.33753 33.1976C9.90185 34.2456 10.135 35.77 10.135 37.898H12.135ZM6.55 31.3H16.899V29.3H6.55V31.3ZM15.9988 30.7354L56.8708 115.23L58.6712 114.36L17.7992 29.8645L15.9988 30.7354ZM58.6712 115.23L99.5432 30.7354L97.7428 29.8645L56.8708 114.36L58.6712 115.23ZM98.643 31.3H108.075V29.3H98.643V31.3ZM107.645 29.3971C106.113 30.1265 105.146 31.0347 104.616 32.2842C104.118 33.4607 104.062 34.8329 104.062 36.326H106.062C106.062 34.8061 106.137 33.8203 106.458 33.0645C106.747 32.3818 107.286 31.7835 108.505 31.2029L107.645 29.3971ZM104.062 36.326V115.974H106.062V36.326H104.062Z"
          fill="white" mask="url(#path-1-outside-1_5_2)"/>

    <path d="M161.8 126.8L171.1 138H164.6L158.4 130.5C154.1 135.5 146.2 139 138.9 139C105.4 139 106.6 105.4 130.4 96.8C117.2 81 127.9 67 139.5 67C146.8 67 152.5 70.2 156.8 74.2V78.5C153.3 72.2 147.1 67.6 139.5 67.6C129.8 67.6 122.2 79.2 131.3 90L161.2 126.1C163.9 121.5 165.4 116.3 165.4 111C165.4 101.5 161.1 95 156.4 90.6H160.6C163.5 95.6 166.3 102.4 166.3 111C166.3 116.6 164.6 122.1 161.8 126.8ZM138.9 138.1C146 138.1 153.7 134.7 157.9 129.8L130.9 97.4C112 105 113.8 138.1 138.9 138.1Z"
          fill="#A0A79E"/>
    <path d="M161.8 126.8L160.941 126.288L160.579 126.895L161.031 127.439L161.8 126.8ZM171.1 138V139H173.23L171.869 137.361L171.1 138ZM164.6 138L163.829 138.637L164.129 139H164.6V138ZM158.4 130.5L159.171 129.863L158.415 128.949L157.642 129.848L158.4 130.5ZM130.4 96.8L130.74 97.7405L132.083 97.2551L131.167 96.1589L130.4 96.8ZM156.8 74.2H157.8V73.7645L157.481 73.4678L156.8 74.2ZM156.8 78.5L155.926 78.9856L157.8 82.3591V78.5H156.8ZM131.3 90L132.07 89.3621L132.065 89.3556L131.3 90ZM161.2 126.1L160.43 126.738L161.34 127.837L162.062 126.606L161.2 126.1ZM156.4 90.6V89.6H153.869L155.717 91.33L156.4 90.6ZM160.6 90.6L161.465 90.0983L161.176 89.6H160.6V90.6ZM157.9 129.8L158.659 130.451L159.209 129.809L158.668 129.16L157.9 129.8ZM130.9 97.4L131.668 96.7598L131.202 96.2006L130.527 96.4722L130.9 97.4ZM161.031 127.439L170.331 138.639L171.869 137.361L162.569 126.161L161.031 127.439ZM171.1 137H164.6V139H171.1V137ZM165.371 137.363L159.171 129.863L157.629 131.137L163.829 138.637L165.371 137.363ZM157.642 129.848C153.548 134.608 145.935 138 138.9 138V140C146.465 140 154.652 136.392 159.158 131.152L157.642 129.848ZM138.9 138C130.688 138 124.715 135.942 120.706 132.826C116.705 129.717 114.589 125.503 114.158 121.029C113.294 112.056 119.223 101.902 130.74 97.7405L130.06 95.8595C117.777 100.298 111.206 111.244 112.167 121.221C112.649 126.222 115.027 130.946 119.479 134.405C123.922 137.858 130.362 140 138.9 140V138ZM131.167 96.1589C124.759 88.4877 124.277 81.4407 126.561 76.3869C128.873 71.2732 134.089 68 139.5 68V66C133.311 66 127.377 69.7268 124.739 75.5631C122.073 81.4593 122.841 89.3123 129.633 97.4411L131.167 96.1589ZM139.5 68C146.48 68 151.948 71.0524 156.119 74.9322L157.481 73.4678C153.052 69.3476 147.12 66 139.5 66V68ZM155.8 74.2V78.5H157.8V74.2H155.8ZM157.674 78.0144C154.038 71.4691 147.539 66.6 139.5 66.6V68.6C146.661 68.6 152.562 72.9308 155.926 78.9856L157.674 78.0144ZM139.5 66.6C134.248 66.6 129.577 69.7374 127.443 74.3286C125.288 78.9672 125.761 84.9785 130.535 90.6444L132.065 89.3556C127.739 84.2215 127.462 79.0328 129.257 75.1714C131.073 71.2626 135.052 68.6 139.5 68.6V66.6ZM130.53 90.6379L160.43 126.738L161.97 125.462L132.07 89.3621L130.53 90.6379ZM162.062 126.606C164.847 121.863 166.4 116.489 166.4 111H164.4C164.4 116.111 162.953 121.137 160.338 125.594L162.062 126.606ZM166.4 111C166.4 101.155 161.929 94.4065 157.083 89.87L155.717 91.33C160.271 95.5935 164.4 101.845 164.4 111H166.4ZM156.4 91.6H160.6V89.6H156.4V91.6ZM159.735 91.1017C162.576 96.0007 165.3 102.627 165.3 111H167.3C167.3 102.173 164.424 95.1993 161.465 90.0983L159.735 91.1017ZM165.3 111C165.3 116.4 163.659 121.725 160.941 126.288L162.659 127.312C165.541 122.475 167.3 116.8 167.3 111H165.3ZM138.9 139.1C146.265 139.1 154.252 135.592 158.659 130.451L157.141 129.149C153.148 133.808 145.735 137.1 138.9 137.1V139.1ZM158.668 129.16L131.668 96.7598L130.132 98.0402L157.132 130.44L158.668 129.16ZM130.527 96.4722C120.559 100.48 116.138 111.162 117.409 120.732C118.047 125.537 120.123 130.134 123.716 133.536C127.32 136.948 132.391 139.1 138.9 139.1V137.1C132.859 137.1 128.293 135.115 125.091 132.083C121.877 129.041 119.978 124.888 119.391 120.468C118.212 111.588 122.341 101.92 131.273 98.3278L130.527 96.4722Z"
          fill="#A0A79E" mask="url(#path-3-outside-2_5_2)"/>

    <path d="M41.75 157.55C49 157.55 53.05 163.5 53.05 168.7C53.05 175.45 47.1 180.5 41.35 180.5C37.35 180.5 34.45 178.7 32.5 176.25V172.65C34.3 177.85 37.55 180.2 41.05 180.2C44.6 180.2 50.3 177.6 50.3 168.95C50.3 162.9 47.45 157.95 41.8 157.95C39.9 157.95 37.75 158.5 36.3 159.45L36.1 159.2L49.8 147.4H40.85C37.05 147.4 34.75 147.65 33.9 149.95L35.5 145H53.15L37.45 158.5C38.75 157.9 40.15 157.55 41.75 157.55ZM70.0348 144.5C77.0848 144.5 81.9348 152.6 81.9348 162.55C81.9348 172.45 77.0848 180.5 70.0348 180.5C63.0348 180.5 58.1348 172.45 58.1348 162.55C58.1348 152.6 63.0348 144.5 70.0348 144.5ZM70.7348 180.2C76.4348 179.95 79.5848 171.85 79.1848 162.15C78.7848 152.5 75.0348 144.6 69.3348 144.8C63.6348 145.05 60.4848 153.2 60.8848 162.9C61.2848 172.6 65.0348 180.4 70.7348 180.2ZM103.493 138.15H104.043L87.4934 186.8H86.9434L103.493 138.15ZM120.963 144.5C128.013 144.5 132.863 152.6 132.863 162.55C132.863 172.45 128.013 180.5 120.963 180.5C113.963 180.5 109.063 172.45 109.063 162.55C109.063 152.6 113.963 144.5 120.963 144.5ZM121.663 180.2C127.363 179.95 130.513 171.85 130.113 162.15C129.713 152.5 125.963 144.6 120.263 144.8C114.563 145.05 111.413 153.2 111.813 162.9C112.213 172.6 115.963 180.4 121.663 180.2ZM150.871 160.7C155.521 163.25 160.671 166.55 160.671 171C160.671 176.35 155.771 180.5 149.371 180.5C142.921 180.5 137.871 176.5 137.871 171.6C137.871 166.3 142.571 163 146.371 161.15C143.271 159.15 140.571 156.45 140.671 152.35C140.771 147.9 144.121 144.5 149.371 144.5C153.921 144.5 158.371 147.3 158.371 152.05C158.371 156.4 153.571 159.55 150.871 160.7ZM143.171 150.8C142.921 155.3 146.571 158.3 150.571 160.55C153.671 159.05 155.621 155.6 155.621 151.3C155.621 147.5 152.421 144.8 149.221 144.8C146.671 144.8 143.421 146.55 143.171 150.8ZM158.121 173.7C158.621 167.35 151.821 164.65 146.621 161.3C143.371 162.9 140.621 166.3 140.621 170.45C140.621 177.35 145.471 180.2 149.821 180.2C151.571 180.2 157.671 179.55 158.121 173.7Z"
          fill="#A0A79E"/>
    <path d="M32.5 176.25H31.5V176.599L31.7176 176.873L32.5 176.25ZM32.5 172.65L33.445 172.323L31.5 172.65H32.5ZM36.3 159.45L35.5191 160.075L36.0873 160.785L36.848 160.286L36.3 159.45ZM36.1 159.2L35.4474 158.442L34.7167 159.072L35.3191 159.825L36.1 159.2ZM49.8 147.4L50.4526 148.158L52.4933 146.4H49.8V147.4ZM33.9 149.95L32.9485 149.642L34.838 150.297L33.9 149.95ZM35.5 145V144H34.7723L34.5485 144.692L35.5 145ZM53.15 145L53.802 145.758L55.8467 144H53.15V145ZM37.45 158.5L36.798 157.742L37.8691 159.408L37.45 158.5ZM41.75 158.55C48.3489 158.55 52.05 163.948 52.05 168.7H54.05C54.05 163.052 49.6511 156.55 41.75 156.55V158.55ZM52.05 168.7C52.05 174.855 46.5919 179.5 41.35 179.5V181.5C47.6081 181.5 54.05 176.045 54.05 168.7H52.05ZM41.35 179.5C37.6924 179.5 35.0675 177.87 33.2824 175.627L31.7176 176.873C33.8325 179.53 37.0076 181.5 41.35 181.5V179.5ZM33.5 176.25V172.65H31.5V176.25H33.5ZM31.555 172.977C33.4497 178.451 37.0014 181.2 41.05 181.2V179.2C38.0986 179.2 35.1503 177.249 33.445 172.323L31.555 172.977ZM41.05 181.2C43.0443 181.2 45.6095 180.476 47.6859 178.552C49.7877 176.605 51.3 173.512 51.3 168.95H49.3C49.3 173.038 47.9623 175.57 46.3266 177.085C44.6655 178.624 42.6057 179.2 41.05 179.2V181.2ZM51.3 168.95C51.3 165.785 50.5568 162.812 48.9835 160.601C47.3843 158.354 44.9607 156.95 41.8 156.95V158.95C44.2893 158.95 46.1157 160.021 47.354 161.761C48.6182 163.538 49.3 166.065 49.3 168.95H51.3ZM41.8 156.95C39.7464 156.95 37.3961 157.536 35.752 158.614L36.848 160.286C38.1039 159.464 40.0536 158.95 41.8 158.95V156.95ZM37.0809 158.825L36.8809 158.575L35.3191 159.825L35.5191 160.075L37.0809 158.825ZM36.7526 159.958L50.4526 148.158L49.1474 146.642L35.4474 158.442L36.7526 159.958ZM49.8 146.4H40.85V148.4H49.8V146.4ZM40.85 146.4C38.9671 146.4 37.2977 146.456 35.979 146.855C34.5734 147.281 33.5126 148.114 32.962 149.603L34.838 150.297C35.1374 149.486 35.6516 149.044 36.5585 148.77C37.5523 148.469 38.9329 148.4 40.85 148.4V146.4ZM34.8515 150.258L36.4515 145.308L34.5485 144.692L32.9485 149.642L34.8515 150.258ZM35.5 146H53.15V144H35.5V146ZM52.498 144.242L36.798 157.742L38.102 159.258L53.802 145.758L52.498 144.242ZM37.8691 159.408C39.0478 158.864 40.3055 158.55 41.75 158.55V156.55C39.9945 156.55 38.4522 156.936 37.0309 157.592L37.8691 159.408ZM70.7348 180.2L70.7698 181.199L70.7786 181.199L70.7348 180.2ZM79.1848 162.15L80.1839 162.109L80.1839 162.109L79.1848 162.15ZM69.3348 144.8L69.2997 143.801L69.2909 143.801L69.3348 144.8ZM70.0348 145.5C73.1281 145.5 75.8215 147.265 77.7865 150.333C79.7565 153.409 80.9348 157.724 80.9348 162.55H82.9348C82.9348 157.426 81.6881 152.716 79.4706 149.254C77.248 145.785 73.9915 143.5 70.0348 143.5V145.5ZM80.9348 162.55C80.9348 167.35 79.7569 171.639 77.7879 174.696C75.8242 177.744 73.1309 179.5 70.0348 179.5V181.5C73.9886 181.5 77.2453 179.231 79.4692 175.779C81.6876 172.336 82.9348 167.65 82.9348 162.55H80.9348ZM70.0348 179.5C66.965 179.5 64.2708 177.745 62.2997 174.695C60.3242 171.637 59.1348 167.348 59.1348 162.55H57.1348C57.1348 167.652 58.3953 172.338 60.6198 175.78C62.8487 179.23 66.1046 181.5 70.0348 181.5V179.5ZM59.1348 162.55C59.1348 157.726 60.3246 153.411 62.3011 150.334C64.2736 147.264 66.9678 145.5 70.0348 145.5V143.5C66.1017 143.5 62.846 145.786 60.6184 149.253C58.3949 152.714 57.1348 157.424 57.1348 162.55H59.1348ZM70.7786 181.199C74.1722 181.05 76.638 178.558 78.1614 175.124C79.6917 171.674 80.3881 167.061 80.1839 162.109L78.1856 162.191C78.3814 166.939 77.7029 171.226 76.3332 174.313C74.9566 177.417 72.9973 179.1 70.6909 179.201L70.7786 181.199ZM80.1839 162.109C79.9798 157.183 78.9204 152.635 77.1277 149.307C75.3443 145.996 72.6986 143.681 69.2997 143.801L69.3698 145.799C71.671 145.719 73.7502 147.254 75.3669 150.255C76.9741 153.24 77.9898 157.467 78.1856 162.191L80.1839 162.109ZM69.2909 143.801C65.8945 143.95 63.4297 146.458 61.9076 149.902C60.3779 153.364 59.6814 157.989 59.8856 162.941L61.8839 162.859C61.6881 158.111 62.3666 153.811 63.7369 150.71C65.1149 147.592 67.075 145.9 69.3786 145.799L69.2909 143.801ZM59.8856 162.941C60.0897 167.891 61.1489 172.428 62.943 175.739C64.7296 179.036 67.3765 181.318 70.7698 181.199L70.6997 179.201C68.393 179.282 66.315 177.764 64.7015 174.786C63.0956 171.822 62.0798 167.609 61.8839 162.859L59.8856 162.941ZM103.493 138.15V137.15H102.777L102.547 137.828L103.493 138.15ZM104.043 138.15L104.99 138.472L105.44 137.15H104.043V138.15ZM87.4934 186.8V187.8H88.2095L88.4401 187.122L87.4934 186.8ZM86.9434 186.8L85.9966 186.478L85.5469 187.8H86.9434V186.8ZM103.493 139.15H104.043V137.15H103.493V139.15ZM103.097 137.828L86.5466 186.478L88.4401 187.122L104.99 138.472L103.097 137.828ZM87.4934 185.8H86.9434V187.8H87.4934V185.8ZM87.8901 187.122L104.44 138.472L102.547 137.828L85.9966 186.478L87.8901 187.122ZM121.663 180.2L121.698 181.199L121.706 181.199L121.663 180.2ZM130.113 162.15L131.112 162.109L131.112 162.109L130.113 162.15ZM120.263 144.8L120.227 143.801L120.219 143.801L120.263 144.8ZM120.963 145.5C124.056 145.5 126.749 147.265 128.714 150.333C130.684 153.409 131.863 157.724 131.863 162.55H133.863C133.863 157.426 132.616 152.716 130.398 149.254C128.176 145.785 124.919 143.5 120.963 143.5V145.5ZM131.863 162.55C131.863 167.35 130.685 171.639 128.716 174.696C126.752 177.744 124.059 179.5 120.963 179.5V181.5C124.916 181.5 128.173 179.231 130.397 175.779C132.615 172.336 133.863 167.65 133.863 162.55H131.863ZM120.963 179.5C117.893 179.5 115.199 177.745 113.227 174.695C111.252 171.637 110.063 167.348 110.063 162.55H108.063C108.063 167.652 109.323 172.338 111.548 175.78C113.776 179.23 117.032 181.5 120.963 181.5V179.5ZM110.063 162.55C110.063 157.726 111.252 153.411 113.229 150.334C115.201 147.264 117.896 145.5 120.963 145.5V143.5C117.029 143.5 113.774 145.786 111.546 149.253C109.323 152.714 108.063 157.424 108.063 162.55H110.063ZM121.706 181.199C125.1 181.05 127.566 178.558 129.089 175.124C130.619 171.674 131.316 167.061 131.112 162.109L129.113 162.191C129.309 166.939 128.631 171.226 127.261 174.313C125.884 177.417 123.925 179.1 121.619 179.201L121.706 181.199ZM131.112 162.109C130.907 157.183 129.848 152.635 128.055 149.307C126.272 145.996 123.626 143.681 120.227 143.801L120.298 145.799C122.599 145.719 124.678 147.254 126.295 150.255C127.902 153.24 128.918 157.467 129.113 162.191L131.112 162.109ZM120.219 143.801C116.822 143.95 114.357 146.458 112.835 149.902C111.306 153.364 110.609 157.989 110.813 162.941L112.812 162.859C112.616 158.111 113.294 153.811 114.665 150.71C116.043 147.592 118.003 145.9 120.306 145.799L120.219 143.801ZM110.813 162.941C111.017 167.891 112.077 172.428 113.871 175.739C115.657 179.036 118.304 181.318 121.698 181.199L121.627 179.201C119.321 179.282 117.243 177.764 115.629 174.786C114.023 171.822 113.008 167.609 112.812 162.859L110.813 162.941ZM150.871 160.7L150.479 159.78L148.585 160.587L150.39 161.577L150.871 160.7ZM146.371 161.15L146.809 162.049L148.405 161.272L146.913 160.31L146.371 161.15ZM140.671 152.35L141.671 152.374L141.671 152.372L140.671 152.35ZM143.171 150.8L142.173 150.741L142.173 150.745L143.171 150.8ZM150.571 160.55L150.081 161.422L150.536 161.678L151.007 161.45L150.571 160.55ZM158.121 173.7L157.124 173.622L157.124 173.623L158.121 173.7ZM146.621 161.3L147.163 160.459L146.687 160.153L146.179 160.403L146.621 161.3ZM150.39 161.577C152.708 162.848 155.067 164.263 156.842 165.877C158.624 167.499 159.671 169.187 159.671 171H161.671C161.671 168.363 160.143 166.176 158.188 164.398C156.225 162.612 153.684 161.102 151.352 159.823L150.39 161.577ZM159.671 171C159.671 175.644 155.386 179.5 149.371 179.5V181.5C156.156 181.5 161.671 177.056 161.671 171H159.671ZM149.371 179.5C143.227 179.5 138.871 175.73 138.871 171.6H136.871C136.871 177.27 142.615 181.5 149.371 181.5V179.5ZM138.871 171.6C138.871 169.275 139.894 167.361 141.417 165.774C142.953 164.175 144.961 162.949 146.809 162.049L145.933 160.251C143.981 161.201 141.739 162.55 139.975 164.389C138.199 166.239 136.871 168.625 136.871 171.6H138.871ZM146.913 160.31C143.898 158.364 141.584 155.935 141.671 152.374L139.671 152.326C139.558 156.965 142.645 159.936 145.829 161.99L146.913 160.31ZM141.671 152.372C141.715 150.4 142.475 148.699 143.772 147.487C145.07 146.275 146.966 145.5 149.371 145.5V143.5C146.526 143.5 144.122 144.425 142.407 146.025C140.692 147.626 139.727 149.85 139.671 152.328L141.671 152.372ZM149.371 145.5C151.454 145.5 153.482 146.143 154.967 147.286C156.434 148.415 157.371 150.023 157.371 152.05H159.371C159.371 149.327 158.083 147.16 156.187 145.701C154.31 144.257 151.838 143.5 149.371 143.5V145.5ZM157.371 152.05C157.371 153.841 156.381 155.472 154.941 156.853C153.509 158.227 151.744 159.241 150.479 159.78L151.263 161.62C152.699 161.009 154.683 159.873 156.326 158.297C157.961 156.728 159.371 154.609 159.371 152.05H157.371ZM142.173 150.745C141.886 155.899 146.087 159.175 150.081 161.422L151.061 159.678C147.055 157.425 143.956 154.701 144.17 150.855L142.173 150.745ZM151.007 161.45C154.528 159.746 156.621 155.891 156.621 151.3H154.621C154.621 155.309 152.814 158.354 150.136 159.65L151.007 161.45ZM156.621 151.3C156.621 146.908 152.933 143.8 149.221 143.8V145.8C151.909 145.8 154.621 148.092 154.621 151.3H156.621ZM149.221 143.8C146.257 143.8 142.46 145.854 142.173 150.741L144.169 150.859C144.382 147.246 147.085 145.8 149.221 145.8V143.8ZM159.118 173.778C159.404 170.15 157.564 167.6 155.145 165.604C153.943 164.612 152.57 163.731 151.2 162.902C149.806 162.059 148.449 161.288 147.163 160.459L146.08 162.141C147.394 162.987 148.836 163.81 150.164 164.613C151.516 165.431 152.787 166.251 153.872 167.146C156.028 168.925 157.338 170.9 157.124 173.622L159.118 173.778ZM146.179 160.403C142.664 162.133 139.621 165.841 139.621 170.45H141.621C141.621 166.759 144.078 163.667 147.063 162.197L146.179 160.403ZM139.621 170.45C139.621 174.154 140.933 176.873 142.922 178.657C144.89 180.422 147.44 181.2 149.821 181.2V179.2C147.852 179.2 145.802 178.553 144.257 177.168C142.734 175.802 141.621 173.646 141.621 170.45H139.621ZM149.821 181.2C150.778 181.2 152.912 181.028 154.903 180.039C156.947 179.025 158.861 177.126 159.118 173.777L157.124 173.623C156.932 176.124 155.57 177.475 154.014 178.248C152.405 179.047 150.614 179.2 149.821 179.2V181.2Z"
          fill="#A0A79E" mask="url(#path-5-outside-3_5_2)"/>

    <path d="M202.37 52.3C232.762 52.3 253.329 72.212 253.329 98.15C253.329 124.088 232.762 144 202.37 144H173.55C176.301 142.69 176.563 141.118 176.563 137.974V58.326C176.563 55.313 176.301 53.61 173.55 52.3H202.37ZM202.37 143.214C228.57 143.214 246.255 122.385 246.255 98.15C246.255 73.915 228.57 53.086 202.37 53.086H182.851V143.214H202.37Z"
          fill="white"/>
    <path d="M173.55 144L173.12 143.097L173.55 145V144ZM173.55 52.3V51.3L173.12 53.2029L173.55 52.3ZM182.851 53.086V52.086H181.851V53.086H182.851ZM182.851 143.214H181.851V144.214H182.851V143.214ZM202.37 53.3C232.29 53.3 252.329 72.8417 252.329 98.15H254.329C254.329 71.5823 233.234 51.3 202.37 51.3V53.3ZM252.329 98.15C252.329 123.458 232.29 143 202.37 143V145C233.234 145 254.329 124.718 254.329 98.15H252.329ZM202.37 143H173.55V145H202.37V143ZM173.98 144.903C175.495 144.181 176.471 143.312 177.006 142.071C177.509 140.906 177.563 139.527 177.563 137.974H175.563C175.563 139.565 175.486 140.544 175.17 141.279C174.886 141.937 174.356 142.509 173.12 143.097L173.98 144.903ZM177.563 137.974V58.326H175.563V137.974H177.563ZM177.563 58.326C177.563 56.8329 177.507 55.4607 177.009 54.2842C176.479 53.0347 175.512 52.1265 173.98 51.3971L173.12 53.2029C174.339 53.7835 174.878 54.3818 175.167 55.0645C175.488 55.8203 175.563 56.8061 175.563 58.326H177.563ZM173.55 53.3H202.37V51.3H173.55V53.3ZM202.37 144.214C229.185 144.214 247.255 122.872 247.255 98.15H245.255C245.255 121.898 227.955 142.214 202.37 142.214V144.214ZM247.255 98.15C247.255 73.4277 229.185 52.086 202.37 52.086V54.086C227.955 54.086 245.255 74.4023 245.255 98.15H247.255ZM202.37 52.086H182.851V54.086H202.37V52.086ZM181.851 53.086V143.214H183.851V53.086H181.851ZM182.851 144.214H202.37V142.214H182.851V144.214Z"
          fill="white" mask="url(#path-7-outside-4_5_2)"/>

</svg>
