<svg width="278" height="215" viewBox="0 0 278 215" fill="none" xmlns="http://www.w3.org/2000/svg">
    <path d="M105.062 115.974C105.062 118.987 105.324 120.69 108.075 122H95.63C98.381 120.69 98.643 118.987 98.643 115.974V32.527L54.758 123.31L12.183 35.016V114.402C12.183 118.856 12.969 121.345 16.768 122H6.55C10.218 121.345 11.135 118.856 11.135 114.402V37.898C11.135 33.575 10.218 30.955 6.55 30.3H16.899L57.771 114.795L98.643 30.3H108.075C105.324 31.61 105.062 33.313 105.062 36.326V115.974Z"
          fill="white"/>
    <path d="M108.075 122V123L108.505 121.097L108.075 122ZM95.63 122L95.2001 121.097L95.63 123V122ZM98.643 32.527H99.643L97.7427 32.0918L98.643 32.527ZM54.758 123.31L53.8573 123.744L54.7569 125.61L55.6583 123.745L54.758 123.31ZM12.183 35.016L13.0838 34.5817L11.183 35.016H12.183ZM16.768 122V123L16.9379 121.015L16.768 122ZM6.55 122L6.37421 121.016L6.55 123V122ZM6.55 30.3V29.3L6.37421 31.2844L6.55 30.3ZM16.899 30.3L17.7992 29.8645L17.5261 29.3H16.899V30.3ZM57.771 114.795L56.8708 115.23L57.771 117.091L58.6712 115.23L57.771 114.795ZM98.643 30.3V29.3H98.0159L97.7428 29.8645L98.643 30.3ZM108.075 30.3L108.505 31.2029L108.075 29.3V30.3ZM104.062 115.974C104.062 117.467 104.118 118.839 104.616 120.016C105.146 121.265 106.113 122.174 107.645 122.903L108.505 121.097C107.286 120.516 106.747 119.918 106.458 119.235C106.137 118.48 106.062 117.494 106.062 115.974H104.062ZM108.075 121H95.63V123H108.075V121ZM96.0599 122.903C97.5915 122.174 98.5594 121.265 99.0889 120.016C99.5874 118.839 99.643 117.467 99.643 115.974H97.643C97.643 117.494 97.5676 118.48 97.2474 119.235C96.9581 119.918 96.4195 120.516 95.2001 121.097L96.0599 122.903ZM99.643 115.974V32.527H97.643V115.974H99.643ZM97.7427 32.0918L53.8577 122.875L55.6583 123.745L99.5433 32.9622L97.7427 32.0918ZM55.6588 122.876L13.0838 34.5817L11.2823 35.4503L53.8573 123.744L55.6588 122.876ZM11.183 35.016V114.402H13.183V35.016H11.183ZM11.183 114.402C11.183 116.642 11.371 118.599 12.1682 120.096C13.0178 121.691 14.4708 122.619 16.5981 122.985L16.9379 121.015C15.2662 120.726 14.4267 120.082 13.9335 119.156C13.388 118.131 13.183 116.616 13.183 114.402H11.183ZM16.768 121H6.55V123H16.768V121ZM6.72579 122.984C8.79273 122.615 10.2337 121.685 11.0959 120.104C11.911 118.61 12.135 116.657 12.135 114.402H10.135C10.135 116.601 9.9005 118.119 9.3401 119.147C8.82679 120.088 7.97527 120.73 6.37421 121.016L6.72579 122.984ZM12.135 114.402V37.898H10.135V114.402H12.135ZM12.135 37.898C12.135 35.703 11.9096 33.7559 11.0985 32.2494C10.2429 30.6605 8.80883 29.6875 6.72579 29.3156L6.37421 31.2844C7.95917 31.5675 8.81756 32.2319 9.33753 33.1976C9.90185 34.2456 10.135 35.77 10.135 37.898H12.135ZM6.55 31.3H16.899V29.3H6.55V31.3ZM15.9988 30.7354L56.8708 115.23L58.6712 114.36L17.7992 29.8645L15.9988 30.7354ZM58.6712 115.23L99.5432 30.7354L97.7428 29.8645L56.8708 114.36L58.6712 115.23ZM98.643 31.3H108.075V29.3H98.643V31.3ZM107.645 29.3971C106.113 30.1265 105.146 31.0347 104.616 32.2842C104.118 33.4607 104.062 34.8329 104.062 36.326H106.062C106.062 34.8061 106.137 33.8203 106.458 33.0645C106.747 32.3818 107.286 31.7835 108.505 31.2029L107.645 29.3971ZM104.062 36.326V115.974H106.062V36.326H104.062Z"
          fill="white"/>

    <path d="M158.8 134.8L168.1 146H161.6L155.4 138.5C151.1 143.5 143.2 147 135.9 147C102.4 147 103.6 113.4 127.4 104.8C114.2 89 124.9 75 136.5 75C143.8 75 149.5 78.2 153.8 82.2V86.5C150.3 80.2 144.1 75.6 136.5 75.6C126.8 75.6 119.2 87.2 128.3 98L158.2 134.1C160.9 129.5 162.4 124.3 162.4 119C162.4 109.5 158.1 103 153.4 98.6H157.6C160.5 103.6 163.3 110.4 163.3 119C163.3 124.6 161.6 130.1 158.8 134.8ZM135.9 146.1C143 146.1 150.7 142.7 154.9 137.8L127.9 105.4C109 113 110.8 146.1 135.9 146.1Z"
          fill="#A0A79E"/>
    <path d="M158.8 134.8L157.941 134.288L157.579 134.895L158.031 135.439L158.8 134.8ZM168.1 146V147H170.23L168.869 145.361L168.1 146ZM161.6 146L160.829 146.637L161.129 147H161.6V146ZM155.4 138.5L156.171 137.863L155.415 136.949L154.642 137.848L155.4 138.5ZM127.4 104.8L127.74 105.74L129.083 105.255L128.167 104.159L127.4 104.8ZM153.8 82.2H154.8V81.7645L154.481 81.4678L153.8 82.2ZM153.8 86.5L152.926 86.9856L154.8 90.3591V86.5H153.8ZM128.3 98L129.07 97.3621L129.065 97.3556L128.3 98ZM158.2 134.1L157.43 134.738L158.34 135.837L159.062 134.606L158.2 134.1ZM153.4 98.6V97.6H150.869L152.717 99.33L153.4 98.6ZM157.6 98.6L158.465 98.0983L158.176 97.6H157.6V98.6ZM154.9 137.8L155.659 138.451L156.209 137.809L155.668 137.16L154.9 137.8ZM127.9 105.4L128.668 104.76L128.202 104.201L127.527 104.472L127.9 105.4ZM158.031 135.439L167.331 146.639L168.869 145.361L159.569 134.161L158.031 135.439ZM168.1 145H161.6V147H168.1V145ZM162.371 145.363L156.171 137.863L154.629 139.137L160.829 146.637L162.371 145.363ZM154.642 137.848C150.548 142.608 142.935 146 135.9 146V148C143.465 148 151.652 144.392 156.158 139.152L154.642 137.848ZM135.9 146C127.688 146 121.715 143.942 117.706 140.826C113.705 137.717 111.589 133.503 111.158 129.029C110.294 120.056 116.223 109.902 127.74 105.74L127.06 103.86C114.777 108.298 108.206 119.244 109.167 129.221C109.649 134.222 112.027 138.946 116.479 142.405C120.922 145.858 127.362 148 135.9 148V146ZM128.167 104.159C121.759 96.4877 121.277 89.4407 123.561 84.3869C125.873 79.2732 131.089 76 136.5 76V74C130.311 74 124.377 77.7268 121.739 83.5631C119.073 89.4593 119.841 97.3123 126.633 105.441L128.167 104.159ZM136.5 76C143.48 76 148.948 79.0524 153.119 82.9322L154.481 81.4678C150.052 77.3476 144.12 74 136.5 74V76ZM152.8 82.2V86.5H154.8V82.2H152.8ZM154.674 86.0144C151.038 79.4691 144.539 74.6 136.5 74.6V76.6C143.661 76.6 149.562 80.9308 152.926 86.9856L154.674 86.0144ZM136.5 74.6C131.248 74.6 126.577 77.7374 124.443 82.3286C122.288 86.9672 122.761 92.9785 127.535 98.6444L129.065 97.3556C124.739 92.2215 124.462 87.0328 126.257 83.1714C128.073 79.2626 132.052 76.6 136.5 76.6V74.6ZM127.53 98.6379L157.43 134.738L158.97 133.462L129.07 97.3621L127.53 98.6379ZM159.062 134.606C161.847 129.863 163.4 124.489 163.4 119H161.4C161.4 124.111 159.953 129.137 157.338 133.594L159.062 134.606ZM163.4 119C163.4 109.155 158.929 102.407 154.083 97.87L152.717 99.33C157.271 103.593 161.4 109.845 161.4 119H163.4ZM153.4 99.6H157.6V97.6H153.4V99.6ZM156.735 99.1017C159.576 104.001 162.3 110.627 162.3 119H164.3C164.3 110.173 161.424 103.199 158.465 98.0983L156.735 99.1017ZM162.3 119C162.3 124.4 160.659 129.725 157.941 134.288L159.659 135.312C162.541 130.475 164.3 124.8 164.3 119H162.3ZM135.9 147.1C143.265 147.1 151.252 143.592 155.659 138.451L154.141 137.149C150.148 141.808 142.735 145.1 135.9 145.1V147.1ZM155.668 137.16L128.668 104.76L127.132 106.04L154.132 138.44L155.668 137.16ZM127.527 104.472C117.559 108.48 113.138 119.162 114.409 128.732C115.047 133.537 117.123 138.134 120.716 141.536C124.32 144.948 129.391 147.1 135.9 147.1V145.1C129.859 145.1 125.293 143.115 122.091 140.083C118.877 137.041 116.978 132.888 116.391 128.468C115.212 119.588 119.341 109.92 128.273 106.328L127.527 104.472Z"
          fill="#A0A79E"/>

    <path d="M42.75 172.55C50 172.55 54.05 178.5 54.05 183.7C54.05 190.45 48.1 195.5 42.35 195.5C38.35 195.5 35.45 193.7 33.5 191.25V187.65C35.3 192.85 38.55 195.2 42.05 195.2C45.6 195.2 51.3 192.6 51.3 183.95C51.3 177.9 48.45 172.95 42.8 172.95C40.9 172.95 38.75 173.5 37.3 174.45L37.1 174.2L50.8 162.4H41.85C38.05 162.4 35.75 162.65 34.9 164.95L36.5 160H54.15L38.45 173.5C39.75 172.9 41.15 172.55 42.75 172.55ZM71.0348 159.5C78.0848 159.5 82.9348 167.6 82.9348 177.55C82.9348 187.45 78.0848 195.5 71.0348 195.5C64.0348 195.5 59.1348 187.45 59.1348 177.55C59.1348 167.6 64.0348 159.5 71.0348 159.5ZM71.7348 195.2C77.4348 194.95 80.5848 186.85 80.1848 177.15C79.7848 167.5 76.0348 159.6 70.3348 159.8C64.6348 160.05 61.4848 168.2 61.8848 177.9C62.2848 187.6 66.0348 195.4 71.7348 195.2ZM104.493 153.15H105.043L88.4934 201.8H87.9434L104.493 153.15ZM121.963 159.5C129.013 159.5 133.863 167.6 133.863 177.55C133.863 187.45 129.013 195.5 121.963 195.5C114.963 195.5 110.063 187.45 110.063 177.55C110.063 167.6 114.963 159.5 121.963 159.5ZM122.663 195.2C128.363 194.95 131.513 186.85 131.113 177.15C130.713 167.5 126.963 159.6 121.263 159.8C115.563 160.05 112.413 168.2 112.813 177.9C113.213 187.6 116.963 195.4 122.663 195.2ZM151.871 175.7C156.521 178.25 161.671 181.55 161.671 186C161.671 191.35 156.771 195.5 150.371 195.5C143.921 195.5 138.871 191.5 138.871 186.6C138.871 181.3 143.571 178 147.371 176.15C144.271 174.15 141.571 171.45 141.671 167.35C141.771 162.9 145.121 159.5 150.371 159.5C154.921 159.5 159.371 162.3 159.371 167.05C159.371 171.4 154.571 174.55 151.871 175.7ZM144.171 165.8C143.921 170.3 147.571 173.3 151.571 175.55C154.671 174.05 156.621 170.6 156.621 166.3C156.621 162.5 153.421 159.8 150.221 159.8C147.671 159.8 144.421 161.55 144.171 165.8ZM159.121 188.7C159.621 182.35 152.821 179.65 147.621 176.3C144.371 177.9 141.621 181.3 141.621 185.45C141.621 192.35 146.471 195.2 150.821 195.2C152.571 195.2 158.671 194.55 159.121 188.7Z"
          fill="#A0A79E"/>
    <path d="M33.5 191.25H32.5V191.599L32.7176 191.873L33.5 191.25ZM33.5 187.65L34.445 187.323L32.5 187.65H33.5ZM37.3 174.45L36.5191 175.075L37.0873 175.785L37.848 175.286L37.3 174.45ZM37.1 174.2L36.4474 173.442L35.7167 174.072L36.3191 174.825L37.1 174.2ZM50.8 162.4L51.4526 163.158L53.4933 161.4H50.8V162.4ZM34.9 164.95L33.9485 164.642L35.838 165.297L34.9 164.95ZM36.5 160V159H35.7723L35.5485 159.692L36.5 160ZM54.15 160L54.802 160.758L56.8467 159H54.15V160ZM38.45 173.5L37.798 172.742L38.8691 174.408L38.45 173.5ZM42.75 173.55C49.3489 173.55 53.05 178.948 53.05 183.7H55.05C55.05 178.052 50.6511 171.55 42.75 171.55V173.55ZM53.05 183.7C53.05 189.855 47.5919 194.5 42.35 194.5V196.5C48.6081 196.5 55.05 191.045 55.05 183.7H53.05ZM42.35 194.5C38.6924 194.5 36.0675 192.87 34.2824 190.627L32.7176 191.873C34.8325 194.53 38.0076 196.5 42.35 196.5V194.5ZM34.5 191.25V187.65H32.5V191.25H34.5ZM32.555 187.977C34.4497 193.451 38.0014 196.2 42.05 196.2V194.2C39.0986 194.2 36.1503 192.249 34.445 187.323L32.555 187.977ZM42.05 196.2C44.0443 196.2 46.6095 195.476 48.6859 193.552C50.7877 191.605 52.3 188.512 52.3 183.95H50.3C50.3 188.038 48.9623 190.57 47.3266 192.085C45.6655 193.624 43.6057 194.2 42.05 194.2V196.2ZM52.3 183.95C52.3 180.785 51.5568 177.812 49.9835 175.601C48.3843 173.354 45.9607 171.95 42.8 171.95V173.95C45.2893 173.95 47.1157 175.021 48.354 176.761C49.6182 178.538 50.3 181.065 50.3 183.95H52.3ZM42.8 171.95C40.7464 171.95 38.3961 172.536 36.752 173.614L37.848 175.286C39.1039 174.464 41.0536 173.95 42.8 173.95V171.95ZM38.0809 173.825L37.8809 173.575L36.3191 174.825L36.5191 175.075L38.0809 173.825ZM37.7526 174.958L51.4526 163.158L50.1474 161.642L36.4474 173.442L37.7526 174.958ZM50.8 161.4H41.85V163.4H50.8V161.4ZM41.85 161.4C39.9671 161.4 38.2977 161.456 36.979 161.855C35.5734 162.281 34.5126 163.114 33.962 164.603L35.838 165.297C36.1374 164.486 36.6516 164.044 37.5585 163.77C38.5523 163.469 39.9329 163.4 41.85 163.4V161.4ZM35.8515 165.258L37.4515 160.308L35.5485 159.692L33.9485 164.642L35.8515 165.258ZM36.5 161H54.15V159H36.5V161ZM53.498 159.242L37.798 172.742L39.102 174.258L54.802 160.758L53.498 159.242ZM38.8691 174.408C40.0478 173.864 41.3055 173.55 42.75 173.55V171.55C40.9945 171.55 39.4522 171.936 38.0309 172.592L38.8691 174.408ZM71.7348 195.2L71.7698 196.199L71.7786 196.199L71.7348 195.2ZM80.1848 177.15L81.1839 177.109L81.1839 177.109L80.1848 177.15ZM70.3348 159.8L70.2997 158.801L70.2909 158.801L70.3348 159.8ZM71.0348 160.5C74.1281 160.5 76.8215 162.265 78.7865 165.333C80.7565 168.409 81.9348 172.724 81.9348 177.55H83.9348C83.9348 172.426 82.6881 167.716 80.4706 164.254C78.248 160.785 74.9915 158.5 71.0348 158.5V160.5ZM81.9348 177.55C81.9348 182.35 80.7569 186.639 78.7879 189.696C76.8242 192.744 74.1309 194.5 71.0348 194.5V196.5C74.9886 196.5 78.2453 194.231 80.4692 190.779C82.6876 187.336 83.9348 182.65 83.9348 177.55H81.9348ZM71.0348 194.5C67.965 194.5 65.2708 192.745 63.2997 189.695C61.3242 186.637 60.1348 182.348 60.1348 177.55H58.1348C58.1348 182.652 59.3953 187.338 61.6198 190.78C63.8487 194.23 67.1046 196.5 71.0348 196.5V194.5ZM60.1348 177.55C60.1348 172.726 61.3246 168.411 63.3011 165.334C65.2736 162.264 67.9678 160.5 71.0348 160.5V158.5C67.1017 158.5 63.846 160.786 61.6184 164.253C59.3949 167.714 58.1348 172.424 58.1348 177.55H60.1348ZM71.7786 196.199C75.1722 196.05 77.638 193.558 79.1614 190.124C80.6917 186.674 81.3881 182.061 81.1839 177.109L79.1856 177.191C79.3814 181.939 78.7029 186.226 77.3332 189.313C75.9566 192.417 73.9973 194.1 71.6909 194.201L71.7786 196.199ZM81.1839 177.109C80.9798 172.183 79.9204 167.635 78.1277 164.307C76.3443 160.996 73.6986 158.681 70.2997 158.801L70.3698 160.799C72.671 160.719 74.7502 162.254 76.3669 165.255C77.9741 168.24 78.9898 172.467 79.1856 177.191L81.1839 177.109ZM70.2909 158.801C66.8945 158.95 64.4297 161.458 62.9076 164.902C61.3779 168.364 60.6814 172.989 60.8856 177.941L62.8839 177.859C62.6881 173.111 63.3666 168.811 64.7369 165.71C66.1149 162.592 68.075 160.9 70.3786 160.799L70.2909 158.801ZM60.8856 177.941C61.0897 182.891 62.1489 187.428 63.943 190.739C65.7296 194.036 68.3765 196.318 71.7698 196.199L71.6997 194.201C69.393 194.282 67.315 192.764 65.7015 189.786C64.0956 186.822 63.0798 182.609 62.8839 177.859L60.8856 177.941ZM104.493 153.15V152.15H103.777L103.547 152.828L104.493 153.15ZM105.043 153.15L105.99 153.472L106.44 152.15H105.043V153.15ZM88.4934 201.8V202.8H89.2095L89.4401 202.122L88.4934 201.8ZM87.9434 201.8L86.9966 201.478L86.5469 202.8H87.9434V201.8ZM104.493 154.15H105.043V152.15H104.493V154.15ZM104.097 152.828L87.5466 201.478L89.4401 202.122L105.99 153.472L104.097 152.828ZM88.4934 200.8H87.9434V202.8H88.4934V200.8ZM88.8901 202.122L105.44 153.472L103.547 152.828L86.9966 201.478L88.8901 202.122ZM122.663 195.2L122.698 196.199L122.706 196.199L122.663 195.2ZM131.113 177.15L132.112 177.109L132.112 177.109L131.113 177.15ZM121.263 159.8L121.227 158.801L121.219 158.801L121.263 159.8ZM121.963 160.5C125.056 160.5 127.749 162.265 129.714 165.333C131.684 168.409 132.863 172.724 132.863 177.55H134.863C134.863 172.426 133.616 167.716 131.398 164.254C129.176 160.785 125.919 158.5 121.963 158.5V160.5ZM132.863 177.55C132.863 182.35 131.685 186.639 129.716 189.696C127.752 192.744 125.059 194.5 121.963 194.5V196.5C125.916 196.5 129.173 194.231 131.397 190.779C133.615 187.336 134.863 182.65 134.863 177.55H132.863ZM121.963 194.5C118.893 194.5 116.199 192.745 114.227 189.695C112.252 186.637 111.063 182.348 111.063 177.55H109.063C109.063 182.652 110.323 187.338 112.548 190.78C114.776 194.23 118.032 196.5 121.963 196.5V194.5ZM111.063 177.55C111.063 172.726 112.252 168.411 114.229 165.334C116.201 162.264 118.896 160.5 121.963 160.5V158.5C118.029 158.5 114.774 160.786 112.546 164.253C110.323 167.714 109.063 172.424 109.063 177.55H111.063ZM122.706 196.199C126.1 196.05 128.566 193.558 130.089 190.124C131.619 186.674 132.316 182.061 132.112 177.109L130.113 177.191C130.309 181.939 129.631 186.226 128.261 189.313C126.884 192.417 124.925 194.1 122.619 194.201L122.706 196.199ZM132.112 177.109C131.907 172.183 130.848 167.635 129.055 164.307C127.272 160.996 124.626 158.681 121.227 158.801L121.298 160.799C123.599 160.719 125.678 162.254 127.295 165.255C128.902 168.24 129.918 172.467 130.113 177.191L132.112 177.109ZM121.219 158.801C117.822 158.95 115.357 161.458 113.835 164.902C112.306 168.364 111.609 172.989 111.813 177.941L113.812 177.859C113.616 173.111 114.294 168.811 115.665 165.71C117.043 162.592 119.003 160.9 121.306 160.799L121.219 158.801ZM111.813 177.941C112.017 182.891 113.077 187.428 114.871 190.739C116.657 194.036 119.304 196.318 122.698 196.199L122.627 194.201C120.321 194.282 118.243 192.764 116.629 189.786C115.023 186.822 114.008 182.609 113.812 177.859L111.813 177.941ZM151.871 175.7L151.479 174.78L149.585 175.587L151.39 176.577L151.871 175.7ZM147.371 176.15L147.809 177.049L149.405 176.272L147.913 175.31L147.371 176.15ZM141.671 167.35L142.671 167.374L142.671 167.372L141.671 167.35ZM144.171 165.8L143.173 165.741L143.173 165.745L144.171 165.8ZM151.571 175.55L151.081 176.422L151.536 176.678L152.007 176.45L151.571 175.55ZM159.121 188.7L158.124 188.622L158.124 188.623L159.121 188.7ZM147.621 176.3L148.163 175.459L147.687 175.153L147.179 175.403L147.621 176.3ZM151.39 176.577C153.708 177.848 156.067 179.263 157.842 180.877C159.624 182.499 160.671 184.187 160.671 186H162.671C162.671 183.363 161.143 181.176 159.188 179.398C157.225 177.612 154.684 176.102 152.352 174.823L151.39 176.577ZM160.671 186C160.671 190.644 156.386 194.5 150.371 194.5V196.5C157.156 196.5 162.671 192.056 162.671 186H160.671ZM150.371 194.5C144.227 194.5 139.871 190.73 139.871 186.6H137.871C137.871 192.27 143.615 196.5 150.371 196.5V194.5ZM139.871 186.6C139.871 184.275 140.894 182.361 142.417 180.774C143.953 179.175 145.961 177.949 147.809 177.049L146.933 175.251C144.981 176.201 142.739 177.55 140.975 179.389C139.199 181.239 137.871 183.625 137.871 186.6H139.871ZM147.913 175.31C144.898 173.364 142.584 170.935 142.671 167.374L140.671 167.326C140.558 171.965 143.645 174.936 146.829 176.99L147.913 175.31ZM142.671 167.372C142.715 165.4 143.475 163.699 144.772 162.487C146.07 161.275 147.966 160.5 150.371 160.5V158.5C147.526 158.5 145.122 159.425 143.407 161.025C141.692 162.626 140.727 164.85 140.671 167.328L142.671 167.372ZM150.371 160.5C152.454 160.5 154.482 161.143 155.967 162.286C157.434 163.415 158.371 165.023 158.371 167.05H160.371C160.371 164.327 159.083 162.16 157.187 160.701C155.31 159.257 152.838 158.5 150.371 158.5V160.5ZM158.371 167.05C158.371 168.841 157.381 170.472 155.941 171.853C154.509 173.227 152.744 174.241 151.479 174.78L152.263 176.62C153.699 176.009 155.683 174.873 157.326 173.297C158.961 171.728 160.371 169.609 160.371 167.05H158.371ZM143.173 165.745C142.886 170.899 147.087 174.175 151.081 176.422L152.061 174.678C148.055 172.425 144.956 169.701 145.17 165.855L143.173 165.745ZM152.007 176.45C155.528 174.746 157.621 170.891 157.621 166.3H155.621C155.621 170.309 153.814 173.354 151.136 174.65L152.007 176.45ZM157.621 166.3C157.621 161.908 153.933 158.8 150.221 158.8V160.8C152.909 160.8 155.621 163.092 155.621 166.3H157.621ZM150.221 158.8C147.257 158.8 143.46 160.854 143.173 165.741L145.169 165.859C145.382 162.246 148.085 160.8 150.221 160.8V158.8ZM160.118 188.778C160.404 185.15 158.564 182.6 156.145 180.604C154.943 179.612 153.57 178.731 152.2 177.902C150.806 177.059 149.449 176.288 148.163 175.459L147.08 177.141C148.394 177.987 149.836 178.81 151.164 179.613C152.516 180.431 153.787 181.251 154.872 182.146C157.028 183.925 158.338 185.9 158.124 188.622L160.118 188.778ZM147.179 175.403C143.664 177.133 140.621 180.841 140.621 185.45H142.621C142.621 181.759 145.078 178.667 148.063 177.197L147.179 175.403ZM140.621 185.45C140.621 189.154 141.933 191.873 143.922 193.657C145.89 195.422 148.44 196.2 150.821 196.2V194.2C148.852 194.2 146.802 193.553 145.257 192.168C143.734 190.802 142.621 188.646 142.621 185.45H140.621ZM150.821 196.2C151.778 196.2 153.912 196.028 155.903 195.039C157.947 194.025 159.861 192.126 160.118 188.777L158.124 188.623C157.932 191.124 156.57 192.475 155.014 193.248C153.405 194.047 151.614 194.2 150.821 194.2V196.2Z"
          fill="#A0A79E"/>

    <path d="M199.37 60.3C229.762 60.3 250.329 80.212 250.329 106.15C250.329 132.088 229.762 152 199.37 152H170.55C173.301 150.69 173.563 149.118 173.563 145.974V66.326C173.563 63.313 173.301 61.61 170.55 60.3H199.37ZM199.37 151.214C225.57 151.214 243.255 130.385 243.255 106.15C243.255 81.915 225.57 61.086 199.37 61.086H179.851V151.214H199.37Z"
          fill="white"/>
    <path d="M170.55 152L170.12 151.097L170.55 153V152ZM170.55 60.3V59.3L170.12 61.2029L170.55 60.3ZM179.851 61.086V60.086H178.851V61.086H179.851ZM179.851 151.214H178.851V152.214H179.851V151.214ZM199.37 61.3C229.29 61.3 249.329 80.8417 249.329 106.15H251.329C251.329 79.5823 230.234 59.3 199.37 59.3V61.3ZM249.329 106.15C249.329 131.458 229.29 151 199.37 151V153C230.234 153 251.329 132.718 251.329 106.15H249.329ZM199.37 151H170.55V153H199.37V151ZM170.98 152.903C172.495 152.181 173.471 151.312 174.006 150.071C174.509 148.906 174.563 147.527 174.563 145.974H172.563C172.563 147.565 172.486 148.544 172.17 149.279C171.886 149.937 171.356 150.509 170.12 151.097L170.98 152.903ZM174.563 145.974V66.326H172.563V145.974H174.563ZM174.563 66.326C174.563 64.8329 174.507 63.4607 174.009 62.2842C173.479 61.0347 172.512 60.1265 170.98 59.3971L170.12 61.2029C171.339 61.7835 171.878 62.3818 172.167 63.0645C172.488 63.8203 172.563 64.8061 172.563 66.326H174.563ZM170.55 61.3H199.37V59.3H170.55V61.3ZM199.37 152.214C226.185 152.214 244.255 130.872 244.255 106.15H242.255C242.255 129.898 224.955 150.214 199.37 150.214V152.214ZM244.255 106.15C244.255 81.4277 226.185 60.086 199.37 60.086V62.086C224.955 62.086 242.255 82.4023 242.255 106.15H244.255ZM199.37 60.086H179.851V62.086H199.37V60.086ZM178.851 61.086V151.214H180.851V61.086H178.851ZM179.851 152.214H199.37V150.214H179.851V152.214Z"
          fill="white"/>
</svg>
